<?xml version="1.0" encoding="utf-8"?>
<!-- Generator: Adobe Illustrator 21.0.0, SVG Export Plug-In . SVG Version: 6.00 Build 0)  -->
<svg height="500" version="1.1" width="500" xmlns:xlink="http://www.w3.org/1999/xlink" xmlns="http://www.w3.org/2000/svg">
<polygon fill-opacity="0.2" fill="#C6152F" points="161.7,183 51.6,263.3 37.1,127.8 "/>
<polygon fill-opacity="0.2" fill="#C6152F" points="300.3,414.8 114.4,369.5 246.6,231.2 "/>
<polygon fill-opacity="0.2" fill="#C6152F" points="337.2,238.3 280.9,362.4 201.6,251.6 "/>
<polygon fill-opacity="0.2" fill="#16336F" points="255.3,154.2 302.9,41.1 377.1,138.8 "/>
<polygon fill-opacity="0.2" fill="#16336F" points="48.5,261.5 195,198.4 176.5,356.8 "/>
<polygon fill-opacity="0.2" fill="#C6152F" points="247.5,160.6 137.3,240.9 122.9,105.4 "/>
<polygon fill-opacity="0.2" fill="#16336F" points="316.7,246.9 463.2,183.8 444.6,342.2 "/>
<polygon fill-opacity="0.2" fill="#16336F" points="218.8,325.5 266.4,212.4 340.5,310.1 "/>
<polygon fill-opacity="0.2" fill="#16336F" points="30.9,82 177.4,18.8 158.8,177.3 "/>
<polygon fill-opacity="0.2" fill="#16336F" points="197.6,387.1 344.1,323.9 325.5,482.4 "/>
<polygon fill-opacity="0.2" fill="#16336F" points="12.4,345.1 158.9,281.9 140.4,440.4 "/>
<polygon fill-opacity="0.2" fill="#C6152F" points="189.5,145.2 79.3,225.4 64.9,89.9 "/>
<polygon fill-opacity="0.2" fill="#16336F" points="242.4,132.9 388.9,69.7 370.3,228.2 "/>
<polygon fill-opacity="0.2" fill="#16336F" points="384.4,413 355.6,293.7 473.3,328.4 "/>
<polygon fill-opacity="0.2" fill="#16336F" points="342.9,471.1 314,351.8 431.8,386.5 "/>
<polygon fill-opacity="0.2" fill="#6CB92D" points="187.7,374.8 96.5,348 165.3,282.4 "/>
<polygon fill-opacity="0.2" fill="#16336F" points="346.3,341.7 317.5,222.4 435.2,257.1 "/>
<polygon fill-opacity="0.2" fill="#16336F" points="133.1,171 104.2,51.7 222,86.4 "/>
<polygon fill-opacity="0.2" fill="#16336F" points="146.6,462.1 117.8,342.8 235.5,377.5 "/>
<polygon fill-opacity="0.2" fill="#6CB92D" points="298.2,323.9 207,297.1 275.9,231.5 "/>
<polygon fill-opacity="0.2" fill="#C6152F" points="270.8,382.7 84.9,337.4 217.1,199 "/>
<polygon fill-opacity="0.2" fill="#C6152F" points="282.7,279.7 226.4,403.8 147.1,293 "/>
<polygon fill-opacity="0.2" fill="#C6152F" points="300.1,327.3 243.7,451.4 164.4,340.6 "/>
<polygon fill-opacity="0.2" fill="#6CB92D" points="138.1,467.4 47,440.5 115.8,375 "/>
<polygon fill-opacity="0.2" fill="#6CB92D" points="216.5,465.9 125.3,439.1 194.1,373.5 "/>
<polygon fill-opacity="0.2" fill="#6CB92D" points="196.2,301 131.8,370.9 103.5,280.1 "/>
<polygon fill-opacity="0.2" fill="#6CB92D" points="461.8,133.7 440.6,253.9 347.1,175.4 "/>
<polygon fill-opacity="0.2" fill="#6CB92D" points="420.2,44.1 399,164.3 305.5,85.8 "/>
<polygon fill-opacity="0.2" fill="#6CB92D" points="465.9,224.1 444.7,344.3 351.2,265.8 "/>
<polygon fill-opacity="0.2" fill="#6CB92D" points="299,281.2 277.8,401.5 184.3,323 "/>
<polygon fill-opacity="0.2" fill="#16336F" points="114.4,330.3 162,217.2 236.2,315 "/>
<polygon fill-opacity="0.2" fill="#6CB92D" points="259.8,192.4 195.3,262.3 167,171.6 "/>
<polygon fill-opacity="0.2" fill="#6CB92D" points="163.1,235.9 141.9,356.1 48.4,277.7 "/>
<polygon fill-opacity="0.2" fill="#C6152F" points="292.5,240.3 182.4,320.5 167.9,185 "/>
<polygon fill-opacity="0.2" fill="#16336F" points="179.3,318.8 325.8,255.6 307.3,414 "/>
<polygon fill-opacity="0.2" fill="#C6152F" points="378.3,217.8 268.1,298.1 253.7,162.6 "/>
<polygon fill-opacity="0.2" fill="#16336F" points="150.2,150.7 296.7,87.5 278.1,246 "/>
<polygon fill-opacity="0.2" fill="#C6152F" points="320.2,202.4 210.1,282.6 195.7,147.1 "/>
<polygon fill-opacity="0.2" fill="#C6152F" points="195.8,213.6 85.7,293.9 71.3,158.4 "/>
<polygon fill-opacity="0.2" fill="#C6152F" points="206.1,316.2 96,396.5 81.5,261 "/>
<polygon fill-opacity="0.2" fill="#C6152F" points="194.2,329 84.1,409.3 69.6,273.8 "/>
<polygon fill-opacity="0.2" fill="#C6152F" points="292.3,85.6 182.2,165.9 167.7,30.4 "/>
<polygon fill-opacity="0.2" fill="#C6152F" points="436.3,107.4 326.2,187.7 311.8,52.2 "/>
<polygon fill-opacity="0.2" fill="#6CB92D" points="318.4,432 227.3,405.2 296.1,339.6 "/>
<polygon fill-opacity="0.2" fill="#C6152F" points="413.5,336.9 357.2,461 277.9,350.2 "/>
<polygon fill-opacity="0.2" fill="#C6152F" points="476,338.5 419.7,462.6 340.4,351.8 "/>
<polygon fill-opacity="0.2" fill="#C6152F" points="338.6,356.3 282.3,480.4 203,369.6 "/>
<polygon fill-opacity="0.2" fill="#C6152F" points="356.1,345 299.8,469.1 220.5,358.3 "/>
<polygon fill-opacity="0.2" fill="#6CB92D" points="327,358.2 262.5,428.1 234.2,337.3 "/>
<polygon fill-opacity="0.2" fill="#16336F" points="245.2,387.5 292.8,274.4 367,372.2 "/>
<polygon fill-opacity="0.2" fill="#16336F" points="183.2,429.7 230.8,316.5 305,414.3 "/>
<polygon fill-opacity="0.2" fill="#16336F" points="250.9,210.1 298.5,96.9 372.7,194.7 "/>
<polygon fill-opacity="0.2" fill="#16336F" points="129.3,153 169.2,58.2 231.4,140.1 "/>
<polygon fill-opacity="0.2" fill="#16336F" points="118.4,135.1 241.2,82.2 225.7,215 "/>
<polygon fill-opacity="0.2" fill="#6CB92D" points="302.4,135.8 284.6,236.6 206.2,170.8 "/>
<polygon fill-opacity="0.2" fill="#6CB92D" points="267.5,60.7 249.8,161.5 171.4,95.7 "/>
<polygon fill-opacity="0.2" fill="#C6152F" points="232.4,206.3 140,273.6 127.9,160 "/>
<polygon fill-opacity="0.2" fill="#16336F" points="41.2,150.1 164,97.1 148.4,229.9 "/>
<polygon fill-opacity="0.2" fill="#C6152F" points="200.5,108.8 108.2,176.1 96.1,62.5 "/>
<polygon fill-opacity="0.2" fill="#C6152F" points="281,113.8 188.7,181.1 176.6,67.5 "/>
<polygon fill-opacity="0.2" fill="#16336F" points="300.4,136.3 348,23.2 422.1,121 "/>
<polygon fill-opacity="0.2" fill="#16336F" points="287.4,115 433.9,51.9 415.4,210.3 "/>
<polygon fill-opacity="0.2" fill="#16336F" points="178.1,153.2 149.3,33.9 267,68.6 "/>
<polygon fill-opacity="0.2" fill="#6CB92D" points="130.2,84.8 109,205 15.5,126.5 "/>
<polygon fill-opacity="0.2" fill="#16336F" points="195.2,132.8 341.7,69.7 323.2,228.1 "/>
<polygon fill-opacity="0.2" fill="#C6152F" points="337.4,67.8 227.2,148 212.8,12.5 "/>
<polygon fill-opacity="0.2" fill="#C6152F" points="436.6,152.6 326.5,232.8 312,97.3 "/>
<polygon fill-opacity="0.2" fill="#16336F" points="296,192.2 343.5,79.1 417.7,176.9 "/>
<polygon fill-opacity="0.2" fill="#16336F" points="174.4,135.1 214.3,40.3 276.4,122.3 "/>
<polygon fill-opacity="0.2" fill="#16336F" points="163.5,117.3 286.3,64.3 270.8,197.2 "/>
<polygon fill-opacity="0.2" fill="#6CB92D" points="347.4,118 329.6,218.7 251.3,152.9 "/>
<polygon fill-opacity="0.2" fill="#6CB92D" points="312.6,42.8 294.8,143.6 216.5,77.8 "/>
<polygon fill-opacity="0.2" fill="#C6152F" points="326.1,95.9 233.8,163.2 221.7,49.6 "/>
<polygon fill-opacity="0.2" fill="#16336F" points="115.6,154.4 155.5,59.6 217.6,141.6 "/>
<polygon fill-opacity="0.2" fill="#16336F" points="294.2,308 341.8,194.9 416,292.6 "/>
<polygon fill-opacity="0.2" fill="#C6152F" points="337.1,311.3 280.8,435.4 201.5,324.6 "/>
<polygon fill-opacity="0.2" fill="#16336F" points="255.2,227.2 302.8,114.1 377,211.9 "/>
<polygon fill-opacity="0.2" fill="#16336F" points="316.6,319.9 463.1,256.8 444.5,415.2 "/>
<polygon fill-opacity="0.2" fill="#16336F" points="242.3,205.9 388.8,142.7 370.2,301.2 "/>
<polygon fill-opacity="0.2" fill="#16336F" points="346.2,414.8 317.4,295.5 435.1,330.1 "/>
<polygon fill-opacity="0.2" fill="#6CB92D" points="407.9,108 386.7,228.2 293.2,149.7 "/>
<polygon fill-opacity="0.2" fill="#6CB92D" points="177.3,314.4 156.1,434.6 62.6,356.2 "/>
<polygon fill-opacity="0.2" fill="#6CB92D" points="420.1,117.1 398.9,237.3 305.4,158.8 "/>
<polygon fill-opacity="0.2" fill="#6CB92D" points="465.8,297.1 444.6,417.3 351.1,338.8 "/>
<polygon fill-opacity="0.2" fill="#C6152F" points="378.1,290.8 268,371.1 253.6,235.6 "/>
<polygon fill-opacity="0.2" fill="#C6152F" points="436.2,180.4 326.1,260.7 311.7,125.2 "/>
<polygon fill-opacity="0.2" fill="#16336F" points="250.8,283.1 298.4,169.9 372.5,267.7 "/>
<polygon fill-opacity="0.2" fill="#16336F" points="287.3,188 433.8,124.9 415.3,283.3 "/>
<polygon fill-opacity="0.2" fill="#6CB92D" points="475,47 453.8,167.2 360.3,88.7 "/>
<polygon fill-opacity="0.2" fill="#16336F" points="195.1,205.8 341.6,142.7 323.1,301.1 "/>
<polygon fill-opacity="0.2" fill="#C6152F" points="396.6,206.8 286.5,287.1 272,151.6 "/>
<polygon fill-opacity="0.2" fill="#C6152F" points="342.7,164.2 232.6,244.4 218.1,108.9 "/>
<polygon fill-opacity="0.2" fill="#16336F" points="233.8,288.5 281.4,175.4 355.5,273.2 "/>
<polygon fill-opacity="0.2" fill="#6CB92D" points="347.3,191 329.5,291.7 251.2,226 "/>
<polygon fill-opacity="0.2" fill="#16336F" points="294.1,381 341.7,267.9 415.8,365.6 "/>
<polygon fill-opacity="0.2" fill="#6CB92D" points="293.8,293.1 272.6,413.4 179.1,334.9 "/>
<polygon fill-opacity="0.2" fill="#C6152F" points="219.7,241.5 33.8,196.2 166,57.8 "/>
<polygon fill-opacity="0.2" fill="#16336F" points="297.7,331.3 268.9,212 386.7,246.7 "/>
<polygon fill-opacity="0.2" fill="#16336F" points="256.2,389.4 227.4,270.1 345.1,304.8 "/>
<polygon fill-opacity="0.2" fill="#C6152F" points="222.5,364.1 36.5,318.8 168.8,180.4 "/>
<polygon fill-opacity="0.2" fill="#C6152F" points="196.1,198 139.8,322.1 60.4,211.3 "/>
<polygon fill-opacity="0.2" fill="#C6152F" points="213.4,245.6 157.1,369.7 77.8,258.9 "/>
<polygon fill-opacity="0.2" fill="#6CB92D" points="212.4,199.6 191.1,319.8 97.6,241.3 "/>
<polygon fill-opacity="0.2" fill="#16336F" points="92.7,237.1 239.2,173.9 220.6,332.4 "/>
<polygon fill-opacity="0.2" fill="#6CB92D" points="231.8,350.4 140.6,323.5 209.5,258 "/>
<polygon fill-opacity="0.2" fill="#C6152F" points="326.9,255.2 270.5,379.3 191.2,268.5 "/>
<polygon fill-opacity="0.2" fill="#C6152F" points="389.3,256.9 333,381 253.7,270.2 "/>
<polygon fill-opacity="0.2" fill="#C6152F" points="269.4,263.4 213.1,387.5 133.8,276.6 "/>
<polygon fill-opacity="0.2" fill="#6CB92D" points="240.3,276.5 175.9,346.4 147.6,255.7 "/>
<polygon fill-opacity="0.2" fill="#16336F" points="158.5,305.9 206.1,192.8 280.3,290.5 "/>
<polygon fill-opacity="0.2" fill="#16336F" points="96.5,348 144.1,234.9 218.3,332.6 "/>
<polygon fill-opacity="0.2" fill="#C6152F" points="250.5,229.7 194.2,353.7 114.8,242.9 "/>
<polygon fill-opacity="0.2" fill="#16336F" points="124.9,208.1 271.4,145 252.9,303.4 "/>
<polygon fill-opacity="0.2" fill="#16336F" points="259.6,333.1 230.7,213.8 348.5,248.5 "/>
<polygon fill-opacity="0.2" fill="#6CB92D" points="379.1,215.4 357.9,335.6 264.4,257.2 "/>
<polygon fill-opacity="0.2" fill="#16336F" points="141.8,241.8 288.3,178.6 269.8,337.1 "/>
<polygon fill-opacity="0.2" fill="#16336F" points="43.9,320.4 91.5,207.2 165.6,305 "/>
<polygon fill-opacity="0.2" fill="#16336F" points="22.7,381.9 169.2,318.8 150.6,477.2 "/>
<polygon fill-opacity="0.2" fill="#16336F" points="209.5,407.9 180.7,288.6 298.4,323.3 "/>
<polygon fill-opacity="0.2" fill="#16336F" points="168,466 139.1,346.7 256.9,381.4 "/>
<polygon fill-opacity="0.2" fill="#16336F" points="171.4,336.6 142.6,217.3 260.3,252 "/>
<polygon fill-opacity="0.2" fill="#6CB92D" points="291,219 269.8,339.2 176.3,260.7 "/>
<polygon fill-opacity="0.2" fill="#C6152F" points="238.6,331.8 182.3,455.9 103,345 "/>
<polygon fill-opacity="0.2" fill="#C6152F" points="281.1,335.2 224.7,459.3 145.4,348.5 "/>
<polygon fill-opacity="0.2" fill="#C6152F" points="181.2,339.9 124.9,464 45.6,353.2 "/>
<polygon fill-opacity="0.2" fill="#16336F" points="70.3,382.4 117.9,269.3 192.1,367.1 "/>
<polygon fill-opacity="0.2" fill="#C6152F" points="162.2,306.2 105.9,430.3 26.6,319.5 "/>
<polygon fill-opacity="0.2" fill="#16336F" points="141.7,314.8 288.2,251.6 269.6,410.1 "/>
<polygon fill-opacity="0.2" fill="#16336F" points="171.3,409.6 142.5,290.3 260.2,325 "/>
<polygon fill-opacity="0.2" fill="#6CB92D" points="286.8,201.6 265.6,321.8 172.1,243.3 "/>
<polygon fill-opacity="0.2" fill="#6CB92D" points="290.9,292 269.7,412.2 176.2,333.7 "/>
<polygon fill-opacity="0.2" fill="#C6152F" points="318,410.1 132.1,364.7 264.3,226.4 "/>
<polygon fill-opacity="0.2" fill="#16336F" points="215.2,382.3 361.7,319.1 343.2,477.6 "/>
<polygon fill-opacity="0.2" fill="#16336F" points="402.1,408.2 373.3,288.9 491,323.6 "/>
<polygon fill-opacity="0.2" fill="#16336F" points="360.5,466.3 331.7,347 449.4,381.7 "/>
<polygon fill-opacity="0.2" fill="#16336F" points="164.2,457.3 135.4,338 253.1,372.7 "/>
<polygon fill-opacity="0.2" fill="#C6152F" points="300.4,274.9 244.1,399 164.8,288.2 "/>
<polygon fill-opacity="0.2" fill="#C6152F" points="317.7,322.5 261.4,446.6 182.1,335.8 "/>
<polygon fill-opacity="0.2" fill="#6CB92D" points="234.1,461.2 142.9,434.3 211.8,368.8 "/>
<polygon fill-opacity="0.2" fill="#6CB92D" points="316.7,276.5 295.5,396.7 202,318.2 "/>
<polygon fill-opacity="0.2" fill="#16336F" points="197,314 343.5,250.8 324.9,409.3 "/>
<polygon fill-opacity="0.2" fill="#6CB92D" points="336.1,427.3 244.9,400.4 313.8,334.9 "/>
<polygon fill-opacity="0.2" fill="#C6152F" points="466.1,336.3 409.7,460.4 330.4,349.6 "/>
<polygon fill-opacity="0.2" fill="#C6152F" points="493.6,333.8 437.3,457.9 358,347 "/>
<polygon fill-opacity="0.2" fill="#C6152F" points="358.6,350.4 302.3,474.5 223,363.6 "/>
<polygon fill-opacity="0.2" fill="#C6152F" points="344.4,341.1 288.1,465.2 208.8,354.4 "/>
<polygon fill-opacity="0.2" fill="#6CB92D" points="344.6,353.4 280.2,423.3 251.9,332.5 "/>
<polygon fill-opacity="0.2" fill="#16336F" points="262.9,382.8 310.5,269.6 384.6,367.4 "/>
<polygon fill-opacity="0.2" fill="#16336F" points="200.9,424.9 248.5,311.7 322.6,409.5 "/>
<polygon fill-opacity="0.2" fill="#C6152F" points="354.8,306.5 298.5,430.6 219.2,319.8 "/>
<polygon fill-opacity="0.2" fill="#16336F" points="334.2,315.2 480.7,252 462.2,410.4 "/>
<polygon fill-opacity="0.2" fill="#16336F" points="363.9,410 335.1,290.7 452.8,325.4 "/>
<polygon fill-opacity="0.2" fill="#6CB92D" points="483.5,292.3 462.3,412.5 368.8,334 "/>
<polygon fill-opacity="0.2" fill="#6CB92D" points="311.5,288.4 290.3,408.6 196.8,330.1 "/>
<polygon fill-opacity="0.2" fill="#16336F" points="273.9,384.7 245,265.4 362.8,300 "/>
<polygon fill-opacity="0.2" fill="#C6152F" points="287.1,258.6 230.8,382.7 151.4,271.8 "/>
<polygon fill-opacity="0.2" fill="#16336F" points="227.2,403.1 198.4,283.8 316.1,318.5 "/>
<polygon fill-opacity="0.2" fill="#16336F" points="185.6,461.2 156.8,341.9 274.5,376.6 "/>
<polygon fill-opacity="0.2" fill="#C6152F" points="256.3,327 200,451.1 120.7,340.3 "/>
<polygon fill-opacity="0.2" fill="#C6152F" points="225.3,299.1 169,423.2 89.7,312.4 "/>
<polygon fill-opacity="0.2" fill="#16336F" points="159.3,310 305.8,246.8 287.3,405.3 "/>
<polygon fill-opacity="0.2" fill="#6CB92D" points="308.6,287.2 287.4,407.4 193.9,328.9 "/>
<polygon fill-opacity="0.2" fill="#C6152F" points="203.3,285.7 93.1,366 78.7,230.4 "/>
<polygon fill-opacity="0.2" fill="#16336F" points="96.6,449.6 144.2,336.4 218.4,434.2 "/>
<polygon fill-opacity="0.2" fill="#16336F" points="81.3,384.3 52.5,265 170.2,299.7 "/>
<polygon fill-opacity="0.2" fill="#C6152F" points="247.7,242.3 191.3,366.4 112,255.6 "/>
<polygon fill-opacity="0.2" fill="#16336F" points="116.5,231.7 263,168.6 244.5,327 "/>
<polygon fill-opacity="0.2" fill="#6CB92D" points="174.6,181.3 153.4,301.6 59.9,223.1 "/>
<polygon fill-opacity="0.2" fill="#C6152F" points="291.5,209.2 181.3,289.4 166.9,153.9 "/>
<polygon fill-opacity="0.2" fill="#16336F" points="184.8,258.7 232.4,145.6 306.6,243.3 "/>
<polygon fill-opacity="0.2" fill="#6CB92D" points="250.9,161.9 229.7,282.1 136.2,203.6 "/>
<polygon fill-opacity="0.2" fill="#6CB92D" points="147.8,322.6 126.6,442.8 33.1,364.3 "/>
</svg>
